<mxfile host="app.diagrams.net" modified="2023-05-09T14:31:01.850Z" agent="Mozilla/5.0 (Windows NT 10.0; Win64; x64) AppleWebKit/537.36 (KHTML, like Gecko) Chrome/112.0.0.0 Safari/537.36" etag="mH9CYqyN36qTzwo43aGC" version="21.2.9" type="github">
  <diagram id="C5RBs43oDa-KdzZeNtuy" name="Page-1">
    <mxGraphModel dx="2550" dy="797" grid="1" gridSize="10" guides="1" tooltips="1" connect="1" arrows="1" fold="1" page="1" pageScale="1" pageWidth="827" pageHeight="1169" math="0" shadow="0">
      <root>
        <mxCell id="WIyWlLk6GJQsqaUBKTNV-0" />
        <mxCell id="WIyWlLk6GJQsqaUBKTNV-1" parent="WIyWlLk6GJQsqaUBKTNV-0" />
        <mxCell id="sWiKhDMztHiHkFj8JiIs-2" style="edgeStyle=orthogonalEdgeStyle;rounded=0;orthogonalLoop=1;jettySize=auto;html=1;exitX=0.5;exitY=1;exitDx=0;exitDy=0;entryX=0.5;entryY=0;entryDx=0;entryDy=0;" edge="1" parent="WIyWlLk6GJQsqaUBKTNV-1" source="sWiKhDMztHiHkFj8JiIs-1" target="sWiKhDMztHiHkFj8JiIs-3">
          <mxGeometry relative="1" as="geometry">
            <mxPoint x="400" y="170" as="targetPoint" />
          </mxGeometry>
        </mxCell>
        <mxCell id="sWiKhDMztHiHkFj8JiIs-1" value="Inicio" style="ellipse;whiteSpace=wrap;html=1;" vertex="1" parent="WIyWlLk6GJQsqaUBKTNV-1">
          <mxGeometry x="340" y="100" width="120" height="80" as="geometry" />
        </mxCell>
        <mxCell id="sWiKhDMztHiHkFj8JiIs-5" style="edgeStyle=orthogonalEdgeStyle;rounded=0;orthogonalLoop=1;jettySize=auto;html=1;exitX=0.5;exitY=1;exitDx=0;exitDy=0;entryX=0.5;entryY=0;entryDx=0;entryDy=0;" edge="1" parent="WIyWlLk6GJQsqaUBKTNV-1" source="sWiKhDMztHiHkFj8JiIs-3" target="sWiKhDMztHiHkFj8JiIs-4">
          <mxGeometry relative="1" as="geometry" />
        </mxCell>
        <mxCell id="sWiKhDMztHiHkFj8JiIs-3" value="Busqueda de documento (path)" style="rounded=0;whiteSpace=wrap;html=1;" vertex="1" parent="WIyWlLk6GJQsqaUBKTNV-1">
          <mxGeometry x="340" y="210" width="120" height="60" as="geometry" />
        </mxCell>
        <mxCell id="sWiKhDMztHiHkFj8JiIs-7" style="edgeStyle=orthogonalEdgeStyle;rounded=0;orthogonalLoop=1;jettySize=auto;html=1;" edge="1" parent="WIyWlLk6GJQsqaUBKTNV-1" source="sWiKhDMztHiHkFj8JiIs-4" target="sWiKhDMztHiHkFj8JiIs-6">
          <mxGeometry relative="1" as="geometry" />
        </mxCell>
        <mxCell id="sWiKhDMztHiHkFj8JiIs-12" style="edgeStyle=orthogonalEdgeStyle;rounded=0;orthogonalLoop=1;jettySize=auto;html=1;exitX=0.5;exitY=1;exitDx=0;exitDy=0;" edge="1" parent="WIyWlLk6GJQsqaUBKTNV-1" source="sWiKhDMztHiHkFj8JiIs-4" target="sWiKhDMztHiHkFj8JiIs-11">
          <mxGeometry relative="1" as="geometry" />
        </mxCell>
        <mxCell id="sWiKhDMztHiHkFj8JiIs-4" value="Es ruta absoluta?" style="rhombus;whiteSpace=wrap;html=1;" vertex="1" parent="WIyWlLk6GJQsqaUBKTNV-1">
          <mxGeometry x="360" y="310" width="80" height="80" as="geometry" />
        </mxCell>
        <mxCell id="sWiKhDMztHiHkFj8JiIs-6" value="Si la&amp;nbsp; ruta es relativa, debe resolverse como relativa al directorio desde donde se invoca node" style="whiteSpace=wrap;html=1;aspect=fixed;" vertex="1" parent="WIyWlLk6GJQsqaUBKTNV-1">
          <mxGeometry x="560" y="290" width="120" height="120" as="geometry" />
        </mxCell>
        <mxCell id="sWiKhDMztHiHkFj8JiIs-14" style="edgeStyle=orthogonalEdgeStyle;rounded=0;orthogonalLoop=1;jettySize=auto;html=1;exitX=0.5;exitY=1;exitDx=0;exitDy=0;" edge="1" parent="WIyWlLk6GJQsqaUBKTNV-1" source="sWiKhDMztHiHkFj8JiIs-11" target="sWiKhDMztHiHkFj8JiIs-13">
          <mxGeometry relative="1" as="geometry" />
        </mxCell>
        <mxCell id="sWiKhDMztHiHkFj8JiIs-11" value="Leer&amp;nbsp;" style="rounded=0;whiteSpace=wrap;html=1;" vertex="1" parent="WIyWlLk6GJQsqaUBKTNV-1">
          <mxGeometry x="340" y="480" width="120" height="60" as="geometry" />
        </mxCell>
        <mxCell id="sWiKhDMztHiHkFj8JiIs-19" style="edgeStyle=orthogonalEdgeStyle;rounded=0;orthogonalLoop=1;jettySize=auto;html=1;exitX=0.5;exitY=1;exitDx=0;exitDy=0;" edge="1" parent="WIyWlLk6GJQsqaUBKTNV-1" source="sWiKhDMztHiHkFj8JiIs-13" target="sWiKhDMztHiHkFj8JiIs-18">
          <mxGeometry relative="1" as="geometry" />
        </mxCell>
        <mxCell id="sWiKhDMztHiHkFj8JiIs-13" value="Extraer" style="rounded=0;whiteSpace=wrap;html=1;" vertex="1" parent="WIyWlLk6GJQsqaUBKTNV-1">
          <mxGeometry x="340" y="560" width="120" height="60" as="geometry" />
        </mxCell>
        <mxCell id="sWiKhDMztHiHkFj8JiIs-16" value="Si" style="text;html=1;align=center;verticalAlign=middle;resizable=0;points=[];autosize=1;strokeColor=none;fillColor=none;" vertex="1" parent="WIyWlLk6GJQsqaUBKTNV-1">
          <mxGeometry x="355" y="408" width="30" height="30" as="geometry" />
        </mxCell>
        <mxCell id="sWiKhDMztHiHkFj8JiIs-17" value="No" style="text;html=1;align=center;verticalAlign=middle;resizable=0;points=[];autosize=1;strokeColor=none;fillColor=none;" vertex="1" parent="WIyWlLk6GJQsqaUBKTNV-1">
          <mxGeometry x="470" y="320" width="40" height="30" as="geometry" />
        </mxCell>
        <mxCell id="sWiKhDMztHiHkFj8JiIs-22" style="edgeStyle=orthogonalEdgeStyle;rounded=0;orthogonalLoop=1;jettySize=auto;html=1;exitX=0;exitY=0.5;exitDx=0;exitDy=0;entryX=1;entryY=0.5;entryDx=0;entryDy=0;" edge="1" parent="WIyWlLk6GJQsqaUBKTNV-1" source="sWiKhDMztHiHkFj8JiIs-18" target="sWiKhDMztHiHkFj8JiIs-20">
          <mxGeometry relative="1" as="geometry" />
        </mxCell>
        <mxCell id="sWiKhDMztHiHkFj8JiIs-23" style="edgeStyle=orthogonalEdgeStyle;rounded=0;orthogonalLoop=1;jettySize=auto;html=1;exitX=1;exitY=0.5;exitDx=0;exitDy=0;" edge="1" parent="WIyWlLk6GJQsqaUBKTNV-1" source="sWiKhDMztHiHkFj8JiIs-18" target="sWiKhDMztHiHkFj8JiIs-21">
          <mxGeometry relative="1" as="geometry" />
        </mxCell>
        <mxCell id="sWiKhDMztHiHkFj8JiIs-18" value="&lt;font style=&quot;font-size: 11px;&quot;&gt;&lt;code style=&quot;box-sizing: border-box; font-family: ui-monospace, SFMono-Regular, &amp;quot;SF Mono&amp;quot;, Menlo, Consolas, &amp;quot;Liberation Mono&amp;quot;, monospace; padding: 0.2em 0.4em; margin: 0px; background-color: var(--color-neutral-muted); border-radius: 6px; color: rgb(31, 35, 40); text-align: left;&quot;&gt;validate&lt;/code&gt;: Booleano que determina si se desea validar los links encontrados&lt;/font&gt;" style="rhombus;whiteSpace=wrap;html=1;" vertex="1" parent="WIyWlLk6GJQsqaUBKTNV-1">
          <mxGeometry x="308.75" y="680" width="182.5" height="160" as="geometry" />
        </mxCell>
        <mxCell id="sWiKhDMztHiHkFj8JiIs-28" style="edgeStyle=orthogonalEdgeStyle;rounded=0;orthogonalLoop=1;jettySize=auto;html=1;exitX=0.5;exitY=1;exitDx=0;exitDy=0;entryX=0;entryY=0.5;entryDx=0;entryDy=0;" edge="1" parent="WIyWlLk6GJQsqaUBKTNV-1" source="sWiKhDMztHiHkFj8JiIs-20" target="sWiKhDMztHiHkFj8JiIs-26">
          <mxGeometry relative="1" as="geometry" />
        </mxCell>
        <mxCell id="sWiKhDMztHiHkFj8JiIs-20" value="&lt;pre style=&quot;box-sizing: border-box; font-family: ui-monospace, SFMono-Regular, &amp;quot;SF Mono&amp;quot;, Menlo, Consolas, &amp;quot;Liberation Mono&amp;quot;, monospace; margin-top: 0px; margin-bottom: 0px; overflow-wrap: normal; padding: 16px; overflow: auto; line-height: 1.45; color: rgb(31, 35, 40); background-color: var(--color-canvas-subtle); border-radius: 6px; word-break: normal; text-align: start;&quot;&gt;&lt;font style=&quot;font-size: 12px;&quot;&gt;[{ href, text, file, status, ok }, ...]&lt;/font&gt;&lt;/pre&gt;" style="shape=parallelogram;perimeter=parallelogramPerimeter;whiteSpace=wrap;html=1;fixedSize=1;" vertex="1" parent="WIyWlLk6GJQsqaUBKTNV-1">
          <mxGeometry x="-110" y="720" width="290" height="80" as="geometry" />
        </mxCell>
        <mxCell id="sWiKhDMztHiHkFj8JiIs-27" style="edgeStyle=orthogonalEdgeStyle;rounded=0;orthogonalLoop=1;jettySize=auto;html=1;exitX=0.5;exitY=1;exitDx=0;exitDy=0;entryX=1;entryY=0.5;entryDx=0;entryDy=0;" edge="1" parent="WIyWlLk6GJQsqaUBKTNV-1" source="sWiKhDMztHiHkFj8JiIs-21" target="sWiKhDMztHiHkFj8JiIs-26">
          <mxGeometry relative="1" as="geometry">
            <mxPoint x="740" y="1010" as="targetPoint" />
          </mxGeometry>
        </mxCell>
        <mxCell id="sWiKhDMztHiHkFj8JiIs-21" value="&lt;pre style=&quot;box-sizing: border-box; font-family: ui-monospace, SFMono-Regular, &amp;quot;SF Mono&amp;quot;, Menlo, Consolas, &amp;quot;Liberation Mono&amp;quot;, monospace; margin-top: 0px; margin-bottom: 0px; overflow-wrap: normal; padding: 16px; overflow: auto; line-height: 1.45; color: rgb(31, 35, 40); background-color: var(--color-canvas-subtle); border-radius: 6px; word-break: normal; text-align: start;&quot;&gt;&lt;font style=&quot;font-size: 12px;&quot;&gt;[{ href, text, file }, ...]&lt;/font&gt;&lt;/pre&gt;" style="shape=parallelogram;perimeter=parallelogramPerimeter;whiteSpace=wrap;html=1;fixedSize=1;" vertex="1" parent="WIyWlLk6GJQsqaUBKTNV-1">
          <mxGeometry x="630" y="730" width="220" height="60" as="geometry" />
        </mxCell>
        <mxCell id="sWiKhDMztHiHkFj8JiIs-24" value="True" style="text;html=1;align=center;verticalAlign=middle;resizable=0;points=[];autosize=1;strokeColor=none;fillColor=none;" vertex="1" parent="WIyWlLk6GJQsqaUBKTNV-1">
          <mxGeometry x="225" y="720" width="50" height="30" as="geometry" />
        </mxCell>
        <mxCell id="sWiKhDMztHiHkFj8JiIs-25" value="False" style="text;html=1;align=center;verticalAlign=middle;resizable=0;points=[];autosize=1;strokeColor=none;fillColor=none;" vertex="1" parent="WIyWlLk6GJQsqaUBKTNV-1">
          <mxGeometry x="550" y="720" width="50" height="30" as="geometry" />
        </mxCell>
        <mxCell id="sWiKhDMztHiHkFj8JiIs-26" value="FIN" style="ellipse;whiteSpace=wrap;html=1;" vertex="1" parent="WIyWlLk6GJQsqaUBKTNV-1">
          <mxGeometry x="340" y="870" width="120" height="80" as="geometry" />
        </mxCell>
        <mxCell id="sWiKhDMztHiHkFj8JiIs-30" value="" style="endArrow=classic;html=1;rounded=0;exitX=0.5;exitY=1;exitDx=0;exitDy=0;" edge="1" parent="WIyWlLk6GJQsqaUBKTNV-1" source="sWiKhDMztHiHkFj8JiIs-6">
          <mxGeometry width="50" height="50" relative="1" as="geometry">
            <mxPoint x="340" y="450" as="sourcePoint" />
            <mxPoint x="410" y="440" as="targetPoint" />
            <Array as="points">
              <mxPoint x="620" y="440" />
            </Array>
          </mxGeometry>
        </mxCell>
      </root>
    </mxGraphModel>
  </diagram>
</mxfile>
